<mxfile host="drawio-plugin" modified="2021-07-11T01:37:14.698Z" agent="5.0 (Windows NT 6.2; Win64; x64) AppleWebKit/537.36 (KHTML, like Gecko) Chrome/89.0.4389.90 Safari/537.36" etag="BOZ98R7GeVSRZGy9axtv" version="14.7.4" type="embed" pages="2"><diagram id="23iRSUPoRavnBvh4doch" name="Page-1"><mxGraphModel dx="653" dy="552" grid="1" gridSize="10" guides="1" tooltips="1" connect="1" arrows="1" fold="1" page="1" pageScale="1" pageWidth="827" pageHeight="1169" math="0" shadow="0"><root><mxCell id="0"/><mxCell id="1" parent="0"/><mxCell id="4" style="edgeStyle=orthogonalEdgeStyle;rounded=0;orthogonalLoop=1;jettySize=auto;html=1;" parent="1" source="2" target="3" edge="1"><mxGeometry relative="1" as="geometry"/></mxCell><mxCell id="2" value="Source" style="rounded=0;whiteSpace=wrap;html=1;" parent="1" vertex="1"><mxGeometry x="120" y="120" width="120" height="60" as="geometry"/></mxCell><mxCell id="3" value="Target" style="ellipse;whiteSpace=wrap;html=1;" parent="1" vertex="1"><mxGeometry x="340" y="110" width="120" height="80" as="geometry"/></mxCell><mxCell id="aMBzET5GloIb0uMYiI9Y-4" value="Foreground" parent="0"/><mxCell id="aMBzET5GloIb0uMYiI9Y-6" style="edgeStyle=orthogonalEdgeStyle;rounded=0;orthogonalLoop=1;jettySize=auto;html=1;" edge="1" parent="aMBzET5GloIb0uMYiI9Y-4" source="aMBzET5GloIb0uMYiI9Y-5" target="aMBzET5GloIb0uMYiI9Y-7"><mxGeometry relative="1" as="geometry"><mxPoint x="410" y="390" as="targetPoint"/></mxGeometry></mxCell><mxCell id="aMBzET5GloIb0uMYiI9Y-5" value="Source" style="rounded=0;whiteSpace=wrap;html=1;" vertex="1" parent="aMBzET5GloIb0uMYiI9Y-4"><mxGeometry x="40" y="240" width="120" height="60" as="geometry"/></mxCell><mxCell id="aMBzET5GloIb0uMYiI9Y-7" value="Target" style="ellipse;whiteSpace=wrap;html=1;" vertex="1" parent="aMBzET5GloIb0uMYiI9Y-4"><mxGeometry x="370" y="350" width="120" height="80" as="geometry"/></mxCell></root></mxGraphModel></diagram><diagram id="MRuas7O7aRfa1FYKbwvL" name="Page-2"><mxGraphModel dx="653" dy="552" grid="1" gridSize="10" guides="1" tooltips="1" connect="1" arrows="1" fold="1" page="1" pageScale="1" pageWidth="850" pageHeight="1100" math="0" shadow="0"><root><mxCell id="yOgKtFwyXvcFU_G5tZbn-0"/><mxCell id="yOgKtFwyXvcFU_G5tZbn-1" parent="yOgKtFwyXvcFU_G5tZbn-0"/><mxCell id="yOgKtFwyXvcFU_G5tZbn-2" value="Target" style="rounded=0;whiteSpace=wrap;html=1;" parent="yOgKtFwyXvcFU_G5tZbn-1" vertex="1"><mxGeometry x="280" y="260" width="120" height="60" as="geometry"/></mxCell><mxCell id="yOgKtFwyXvcFU_G5tZbn-4" style="edgeStyle=orthogonalEdgeStyle;rounded=0;orthogonalLoop=1;jettySize=auto;html=1;" parent="yOgKtFwyXvcFU_G5tZbn-1" source="yOgKtFwyXvcFU_G5tZbn-3" target="yOgKtFwyXvcFU_G5tZbn-2" edge="1"><mxGeometry relative="1" as="geometry"/></mxCell><mxCell id="yOgKtFwyXvcFU_G5tZbn-3" value="Source" style="rounded=1;whiteSpace=wrap;html=1;" parent="yOgKtFwyXvcFU_G5tZbn-1" vertex="1"><mxGeometry x="280" y="130" width="120" height="60" as="geometry"/></mxCell></root></mxGraphModel></diagram></mxfile>